<svg width="321" height="103" viewBox="0 0 321 103" fill="none" xmlns="http://www.w3.org/2000/svg">
<path fill-rule="evenodd" clip-rule="evenodd" d="M44.5403 78.0247C52.1985 76.7556 61.1145 71.9324 68.8196 64.2272C82.2729 50.774 86.9403 33.6294 79.2446 25.9337C71.5489 18.238 54.4043 22.9055 40.9511 36.3587C32.3182 44.9916 27.303 55.1446 26.851 63.3454C28.9582 60.9431 32.0506 59.4265 35.4973 59.4265C41.8471 59.4265 46.9946 64.574 46.9946 70.9237C46.9946 73.6038 46.0776 76.0696 44.5403 78.0247Z" fill="#EAC898"/>
<ellipse cx="20.4709" cy="34.4492" rx="20.4709" ry="34.4492" transform="matrix(-0.707107 0.707107 0.707107 0.707107 75.9081 11.9995)" fill="#BB8F54"/>
<path fill-rule="evenodd" clip-rule="evenodd" d="M62.1421 25.8182C61.8982 26.0267 61.6616 26.2454 61.4327 26.4743C58.6746 29.2324 57.3948 33.1085 57.454 37.5553C57.539 35.4094 57.9624 33.1867 58.8885 30.9845C59.636 29.2069 60.6994 27.4708 62.1421 25.8182ZM62.8568 54.4948C64.2856 56.9081 65.985 59.3066 67.9395 61.63C68.2597 61.3415 68.5811 61.0475 68.9027 60.7485L68.8633 62.7009C69.1724 63.0503 69.4873 63.3978 69.808 63.7431L69.8007 59.9002C71.8929 57.8923 73.966 55.6752 75.8 53.3172C79.6756 48.3343 81.2388 42.5028 80.253 37.0887C79.3079 31.8981 75.9894 26.9222 69.7676 23.3379C69.7555 23.3453 69.7434 23.3527 69.7313 23.3601L69.7299 22.6445C69.71 22.647 69.69 22.6495 69.6701 22.6521L69.6549 23.407C65.3233 26.0722 62.8909 29.1115 61.6201 32.1332C60.2638 35.3585 60.1743 38.6996 60.6964 41.7784C61.2196 44.8627 62.3485 47.6294 63.3604 49.6394C63.8642 50.6402 64.3338 51.4428 64.6744 51.9911C64.8446 52.265 64.9822 52.4747 65.0752 52.6132C65.1218 52.6824 65.1571 52.7338 65.1798 52.7664L65.2041 52.8011L65.2088 52.8077L65.2089 52.8078C65.2086 52.8074 65.2083 52.807 64.0048 53.6713C63.2339 54.2249 62.9567 54.4236 62.8568 54.4948ZM74.0064 22.564C79.1934 26.3638 82.209 31.2883 83.1685 36.5579C84.3248 42.9088 82.4617 49.579 78.1391 55.1366C75.6275 58.3658 72.7131 61.3194 69.9053 63.8477C70.3641 64.3393 70.8346 64.8265 71.3168 65.3087C84.7701 78.7619 102.157 83.1872 110.151 75.1928C118.146 67.1984 113.72 49.8117 100.267 36.3584C91.9677 28.059 82.1712 23.1954 74.0064 22.564ZM69.6549 23.407L68.9027 60.7485C69.202 60.4701 69.5015 60.1873 69.8007 59.9002L69.7313 23.3601C69.7058 23.3757 69.6803 23.3913 69.6549 23.407Z" fill="#BB8F54"/>
<mask id="mask0_3286_28140" style="mask-type:alpha" maskUnits="userSpaceOnUse" x="55" y="16" width="30" height="70">
<path d="M61.9679 55.7094C70.1172 43.3003 47.8919 35.151 70.1172 18.2969C84.1932 25.8905 85.9461 41.5842 78.0812 52.3756C70.1172 63.3031 58.0785 70.8967 58.0785 70.8967C65.1307 75.5981 67.9501 81.4352 68.9261 84.0916C69.0597 84.4551 69.7048 84.4612 69.8324 84.0955C70.8151 81.2778 73.4286 75.0572 78.0812 72.3784" stroke="white" stroke-width="2.96337"/>
</mask>
<g mask="url(#mask0_3286_28140)">
<path d="M45.8546 63.4878L67.339 66.266L82.5263 78.1194L85.8601 93.1215H45.8546V63.4878Z" fill="#EAC898"/>
</g>
<g clip-path="url(#clip0_3286_28140)">
<mask id="mask1_3286_28140" style="mask-type:alpha" maskUnits="userSpaceOnUse" x="54" y="19" width="32" height="48">
<path d="M66.9685 62.3765C62.888 60.0703 45.8929 29.3853 65.9538 22.0833C67.808 21.4084 69.8266 21.1283 71.7933 21.2882C88.6059 22.655 89.4103 44.9844 70.117 65.1547" stroke="white" stroke-width="2.96337"/>
</mask>
<g mask="url(#mask1_3286_28140)">
<path d="M50.6699 19.4077H89.9346L87.5351 44.5964L82.5179 56.8203L70.3022 67.9329L69.191 63.6731L66.3758 56.8203L65.067 56.2646L56.1233 63.1174L50.6699 19.4077Z" fill="#2D2214"/>
</g>
</g>
<path d="M124.532 67.9163V37.0142H137.443L147.73 61.6512H149.211L148.365 62.4132V37.0142H155.73V67.9163H142.735L132.448 43.2792H130.966L131.813 42.5173V67.9163H124.532Z" fill="#EAC898"/>
<path d="M169.813 67.9163C167.837 67.9163 166.087 67.5777 164.564 66.9004C163.04 66.223 161.756 65.3059 160.711 64.1488C159.667 62.9917 158.863 61.6936 158.298 60.2543C157.762 58.815 157.494 57.3334 157.494 55.8095V54.9628C157.494 53.3824 157.762 51.8726 158.298 50.4333C158.863 48.9658 159.653 47.6677 160.669 46.5388C161.713 45.41 162.983 44.521 164.479 43.8719C165.975 43.1946 167.668 42.856 169.559 42.856C172.07 42.856 174.201 43.4204 175.951 44.5492C177.7 45.6781 179.041 47.1738 179.972 49.0364C180.904 50.8708 181.369 52.8745 181.369 55.0475V57.5027H160.711V53.3542H176.924L174.257 55.2168C174.257 53.8904 174.074 52.7757 173.707 51.8726C173.369 50.9413 172.846 50.2358 172.141 49.756C171.464 49.2763 170.603 49.0364 169.559 49.0364C168.543 49.0364 167.654 49.2763 166.892 49.756C166.158 50.2076 165.594 50.9131 165.199 51.8726C164.803 52.8039 164.606 53.9892 164.606 55.4285C164.606 56.7266 164.789 57.8555 165.156 58.815C165.523 59.7463 166.087 60.4659 166.849 60.9739C167.611 61.4819 168.599 61.7359 169.813 61.7359C170.885 61.7359 171.76 61.5525 172.437 61.1856C173.143 60.8187 173.637 60.3248 173.919 59.704H180.946C180.607 61.2843 179.93 62.6954 178.914 63.9371C177.926 65.1789 176.656 66.1525 175.104 66.858C173.58 67.5635 171.816 67.9163 169.813 67.9163Z" fill="#EAC898"/>
<path d="M195.155 67.9163C193.123 67.9163 191.36 67.5918 189.864 66.9427C188.368 66.2654 187.112 65.3623 186.096 64.2335C185.109 63.1046 184.361 61.8206 183.853 60.3813C183.373 58.942 183.133 57.4463 183.133 55.8941V55.0475C183.133 53.4107 183.387 51.8585 183.895 50.391C184.431 48.9235 185.207 47.6253 186.223 46.4965C187.239 45.3676 188.495 44.4787 189.991 43.8296C191.487 43.1805 193.208 42.856 195.155 42.856C197.3 42.856 199.191 43.2793 200.828 44.1259C202.465 44.9725 203.763 46.1437 204.722 47.6394C205.71 49.1069 206.26 50.8002 206.373 52.7192H198.838C198.753 51.7879 198.401 50.9978 197.78 50.3487C197.187 49.6996 196.312 49.375 195.155 49.375C194.168 49.375 193.349 49.629 192.7 50.137C192.079 50.645 191.614 51.3505 191.303 52.2536C190.993 53.1567 190.837 54.2291 190.837 55.4708C190.837 56.6279 190.964 57.6579 191.218 58.561C191.501 59.4641 191.952 60.1696 192.573 60.6776C193.222 61.1574 194.083 61.3972 195.155 61.3972C195.945 61.3972 196.609 61.2561 197.145 60.9739C197.681 60.6917 198.104 60.2966 198.415 59.7886C198.725 59.2524 198.923 58.6316 199.007 57.926H206.542C206.43 59.9015 205.865 61.6371 204.849 63.1328C203.861 64.6286 202.535 65.7997 200.87 66.6464C199.205 67.493 197.3 67.9163 195.155 67.9163Z" fill="#EAC898"/>
<path d="M222.064 67.9167C219.524 67.9167 217.492 67.6063 215.968 66.9854C214.473 66.3646 213.386 65.3345 212.709 63.8952C212.032 62.456 211.693 60.5087 211.693 58.0535L211.735 38.1152H218.847L218.805 58.2651C218.805 59.3093 219.073 60.1136 219.609 60.678C220.173 61.2142 220.978 61.4823 222.022 61.4823H225.239V67.9167H222.064ZM208.306 49.7988V44.211H225.239V49.7988H208.306Z" fill="#EAC898"/>
<path d="M242.835 67.3236V60.4659H241.565V53.1425C241.565 52.0701 241.311 51.2799 240.803 50.7719C240.323 50.2357 239.519 49.9676 238.39 49.9676C237.854 49.9676 237.064 49.9817 236.019 50.01C234.975 50.0382 233.875 50.0805 232.718 50.1369C231.561 50.1934 230.502 50.2498 229.543 50.3063V43.8719C230.22 43.8154 231.024 43.759 231.956 43.7025C232.887 43.6461 233.846 43.6038 234.834 43.5755C235.85 43.5473 236.781 43.5332 237.628 43.5332C240.027 43.5332 242.059 43.886 243.724 44.5915C245.417 45.297 246.701 46.3553 247.576 47.7664C248.479 49.1774 248.931 50.9695 248.931 53.1425V67.3236H242.835ZM235.427 67.9163C233.79 67.9163 232.337 67.6199 231.067 67.0273C229.797 66.4346 228.795 65.588 228.061 64.4874C227.356 63.3585 227.003 62.018 227.003 60.4659C227.003 58.7162 227.468 57.3051 228.4 56.2327C229.331 55.1321 230.615 54.3278 232.252 53.8198C233.889 53.3118 235.765 53.0578 237.882 53.0578H242.412V57.037H237.882C236.838 57.037 236.034 57.3051 235.469 57.8413C234.905 58.3493 234.623 59.0407 234.623 59.9156C234.623 60.7622 234.905 61.4536 235.469 61.9898C236.034 62.4978 236.838 62.7518 237.882 62.7518C238.559 62.7518 239.152 62.6389 239.66 62.4131C240.196 62.1591 240.634 61.7358 240.972 61.1432C241.311 60.5505 241.508 59.7321 241.565 58.6879L243.343 60.3812C243.202 61.9898 242.807 63.3585 242.158 64.4874C241.537 65.588 240.662 66.4346 239.533 67.0273C238.432 67.6199 237.064 67.9163 235.427 67.9163Z" fill="#EAC898"/>
<path d="M250.695 67.9167V44.5496H256.79V54.7092H256.706C256.706 51.4355 257.383 48.8674 258.738 47.0048C260.12 45.1422 262.096 44.2109 264.664 44.2109H265.595V50.8147H263.817C262.096 50.8147 260.755 51.2803 259.796 52.2116C258.865 53.1429 258.399 54.4834 258.399 56.2331V67.9167H250.695Z" fill="#EAC898"/>
<path d="M267.359 66.9007V35.9985H275.233V66.9007H267.359ZM274.386 54.9208V48.4864H285.858V54.9208H274.386ZM274.386 42.433V35.9985H286.324V42.433H274.386Z" fill="#FDFDFD"/>
<path d="M289.287 67.9165V44.5494H296.991V67.9165H289.287ZM286.324 50.1372V44.5494H296.991V50.1372H286.324ZM292.462 42.6868C291.051 42.6868 290.007 42.334 289.329 41.6285C288.68 40.8947 288.356 39.9635 288.356 38.8346C288.356 37.7058 288.68 36.7886 289.329 36.083C290.007 35.3493 291.037 34.9824 292.419 34.9824C293.831 34.9824 294.861 35.3493 295.51 36.083C296.159 36.7886 296.483 37.7058 296.483 38.8346C296.483 39.9635 296.159 40.8947 295.51 41.6285C294.861 42.334 293.845 42.6868 292.462 42.6868Z" fill="#FDFDFD"/>
<defs>
<clipPath id="clip0_3286_28140">
<rect width="34.4492" height="43.7097" fill="white" transform="translate(52.8928 22.0005)"/>
</clipPath>
</defs>
</svg>
