<svg width="86" height="19" viewBox="0 0 86 19" fill="none" xmlns="http://www.w3.org/2000/svg">
<path d="M15.7586 0V3.10405L11.2936 7.19364L11.246 7.23611L3.34411 14.4722H0V11.1421L4.26593 7.23611H4.35987L4.31227 7.19364L0 3.24395V0H3.43679L7.80292 3.99716L12.1678 0H15.7586Z" fill="white"/>
<path d="M15.7586 10.0653H11.3399V14.4722H15.7586V10.0653Z" fill="white"/>
<path d="M26.7804 14.4722H20.2422V0.10968H26.7804C31.2392 0.10968 34.0474 2.85356 34.0474 7.29094C34.0474 11.7283 31.2392 14.4722 26.7804 14.4722ZM26.7804 2.18903H22.5359V12.3929H26.7804C30.103 12.3929 31.6036 10.978 31.6036 7.29094C31.6036 3.60385 30.103 2.18903 26.7804 2.18903Z" fill="white"/>
<path d="M41.1315 14.6866C37.6373 14.6866 35.3436 12.7144 35.3436 9.15593C35.3436 5.83325 37.6159 3.60385 41.0886 3.60385C44.3899 3.60385 46.6407 5.42596 46.6407 8.66289C46.6407 9.04875 46.6193 9.34886 46.555 9.67041H37.5087C37.5945 11.7283 38.602 12.8216 41.0672 12.8216C43.2966 12.8216 44.2184 12.0927 44.2184 10.828V10.6565H46.5335V10.8494C46.5335 13.1217 44.3041 14.6866 41.1315 14.6866ZM41.0457 5.42596C38.6877 5.42596 37.6588 6.47635 37.5301 8.38421H44.4542V8.34134C44.4542 6.36917 43.318 5.42596 41.0457 5.42596Z" fill="white"/>
<path d="M53.005 13.5076C49.8324 13.5076 47.946 11.514 47.946 8.5557C47.946 5.59745 49.9182 3.60385 53.1551 3.60385C55.3845 3.60385 57.0566 4.61137 57.4424 6.47635H57.571V3.81821H59.6933V13.2289C59.6933 16.8088 57.4638 18.3308 53.9697 18.3308C50.8185 18.3308 48.632 16.8517 48.632 14.2793H50.9257C50.9257 15.8227 51.826 16.4015 54.0983 16.4015C56.5206 16.4015 57.3995 15.737 57.3995 13.3575V10.7422H57.2495C56.8636 12.35 55.4274 13.5076 53.005 13.5076ZM50.2826 8.5557C50.2826 10.7422 51.5688 11.514 53.7553 11.514C56.1133 11.514 57.3995 10.5279 57.3995 8.64145V8.34134C57.3995 6.54066 56.0705 5.61889 53.8196 5.61889C51.5902 5.61889 50.2826 6.36917 50.2826 8.5557Z" fill="white"/>
<path d="M67.1946 14.6866C63.7004 14.6866 61.4067 12.7144 61.4067 9.15593C61.4067 5.83325 63.679 3.60385 67.1517 3.60385C70.4529 3.60385 72.7038 5.42596 72.7038 8.66289C72.7038 9.04875 72.6823 9.34886 72.618 9.67041H63.5718C63.6575 11.7283 64.665 12.8216 67.1303 12.8216C69.3597 12.8216 70.2814 12.0927 70.2814 10.828V10.6565H72.5966V10.8494C72.5966 13.1217 70.3672 14.6866 67.1946 14.6866ZM67.1088 5.42596C64.7508 5.42596 63.7218 6.47635 63.5932 8.38421H70.5172V8.34134C70.5172 6.36917 69.3811 5.42596 67.1088 5.42596Z" fill="white"/>
<path d="M76.7529 14.4722H74.4378V3.81821H76.56V7.11945H76.7101C77.0316 5.31878 78.4464 3.60385 81.1474 3.60385C84.1057 3.60385 85.5634 5.59745 85.5634 8.06266V14.4722H83.2482V8.68432C83.2482 6.69072 82.3479 5.6832 80.1399 5.6832C77.8033 5.6832 76.7529 6.88365 76.7529 9.1988V14.4722Z" fill="white"/>
</svg>
